<svg xmlns="http://www.w3.org/2000/svg" width="20" height="48.09" viewBox="0 0 20 48.09">
  <g id="Untitled_1_" data-name="Untitled (1)" transform="translate(2.084)">
    <rect id="ee-background" width="15.831" height="48.09" fill="rgba(255,255,255,0)"/>
    <path id="Path_58" data-name="Path 58" d="M66.257,116.28a3.1,3.1,0,0,1,0,3.8,1.964,1.964,0,0,1-3.141,0L60.5,116.91a1.989,1.989,0,0,1-.178-.272A7.75,7.75,0,0,1,49.511,115a12.381,12.381,0,0,1,0-15.193,7.838,7.838,0,0,1,12.563,0,12.454,12.454,0,0,1,1.351,13.072c.071.072.154.129.225.215Zm-6.281-13.932a5.235,5.235,0,0,0-8.379,0,8.272,8.272,0,0,0,0,10.134,5.235,5.235,0,0,0,8.379,0A8.272,8.272,0,0,0,59.976,102.348Z" transform="translate(-48.991 -84.452)" fill="#fff" fill-rule="evenodd"/>
  </g>
</svg>
